<svg xmlns="http://www.w3.org/2000/svg" width="63.5" height="63.5" viewBox="0 0 63.5 63.5">
  <g id="_012-facebook" data-name="012-facebook" transform="translate(0.5 0.5)">
    <g id="Group_116" data-name="Group 116" transform="translate(0 0)">
      <path id="Path_117" data-name="Path 117" d="M56.292-1H4.208A5.158,5.158,0,0,0-1,4.208V56.292A5.158,5.158,0,0,0,4.208,61.5H56.292A5.158,5.158,0,0,0,61.5,56.292V4.208A5.158,5.158,0,0,0,56.292-1ZM30.25,59.417V38.583H21.917V30.25H30.25V22.958A11.534,11.534,0,0,1,40.667,11.5h9.375v8.333H41.708a3.069,3.069,0,0,0-3.125,3.125V30.25H49v8.333H38.583V59.417H30.25Zm29.167-3.125a3.069,3.069,0,0,1-3.125,3.125H40.667V40.667H51.083v-12.5H40.667V22.958a.984.984,0,0,1,1.042-1.042H52.125V9.417H40.563a13.673,13.673,0,0,0-12.4,13.542v5.208H19.833v12.5h8.333v18.75H4.208a3.069,3.069,0,0,1-3.125-3.125V4.208A3.069,3.069,0,0,1,4.208,1.083H56.292a3.069,3.069,0,0,1,3.125,3.125V56.292Z" transform="translate(1 1)" fill="#fff" stroke="#fff" stroke-width="1"/>
    </g>
  </g>
</svg>
