<svg id="instagram" xmlns="http://www.w3.org/2000/svg" width="62.5" height="62.5" viewBox="0 0 62.5 62.5">
  <path id="Path_1" data-name="Path 1" d="M45.581,0H16.917A16.937,16.937,0,0,0,0,16.918V45.582A16.937,16.937,0,0,0,16.917,62.5H45.581A16.937,16.937,0,0,0,62.5,45.582V16.918A16.937,16.937,0,0,0,45.581,0ZM58.835,45.582A13.269,13.269,0,0,1,45.581,58.836H16.917A13.269,13.269,0,0,1,3.663,45.582V16.918A13.269,13.269,0,0,1,16.917,3.664H45.581A13.269,13.269,0,0,1,58.835,16.918Zm0,0" transform="translate(0.001 0)" fill="#fff"/>
  <path id="Path_2" data-name="Path 2" d="M133.093,116a17.089,17.089,0,1,0,17.089,17.089A17.109,17.109,0,0,0,133.093,116Zm0,30.515a13.425,13.425,0,1,1,13.425-13.425A13.441,13.441,0,0,1,133.093,146.519Zm0,0" transform="translate(-101.843 -101.843)" fill="#fff"/>
  <path id="Path_3" data-name="Path 3" d="M363.026,66.285a5.05,5.05,0,1,0,5.05,5.05A5.055,5.055,0,0,0,363.026,66.285Zm0,6.435a1.386,1.386,0,1,1,1.386-1.386A1.388,1.388,0,0,1,363.026,72.721Zm0,0" transform="translate(-314.278 -58.194)" fill="#fff"/>
</svg>
