<svg id="Lag_1" data-name="Lag 1" xmlns="http://www.w3.org/2000/svg" width="1024" height="547" viewBox="0 0 1024 547"><defs><style>.cls-1{fill:#fff;}.cls-2{fill:#36edad;}</style></defs><path class="cls-1" d="M137.13,171.18c0-3.47,1.27-4.05,4.28-3.81a63.44,63.44,0,0,1,59,62.93c.12,16.32.23,32.75,0,48.94-.34,21.06,6.37,39.22,20.71,54.61,3.82,3.36,7.29,7.29,11.57,10.07A81.41,81.41,0,0,0,256.18,354a73.88,73.88,0,0,0,89-50.9c2.08-6.95,2.66-14.12,2.78-21.29,0-16.2,0-32.4.11-48.59,0-14.23,3.24-27.66,11.92-39.46,11.8-15.73,27.65-24.52,47.2-26.26,2.78-.35,3.93.23,3.82,3.36,0,39.22.11,78.32.11,117.54a120.59,120.59,0,0,1-5.43,33.21c-8.8,29.85-25.92,54-51,72.42-1.62,1.16-3.48,2.09-5.21,3.13a126.45,126.45,0,0,1-62,21.86c-46.05,3.82-85-11.45-116-45.93-20-22.21-31.23-48.71-33.55-78.79Z"/><path class="cls-2" d="M319.11,218.32c-5.76,13.16-14.35,25-23.92,35.89A25.73,25.73,0,0,1,282.25,262c7.28-20.56,13.48-64.92-1.85-101.24,5.66,28.71-10.75,71.73-21.62,95.54-4.78-1.19,1.39,1.89-2.19-2.13-9.68-10.88-18.27-22.73-24-35.89-9.14-21.2-6.64-40.88,6.19-59.48,7.29-10.43,14.58-20.66,22.08-30.77L272,113a4.68,4.68,0,0,1,7.61,0l11.2,15.11c7.61,10.11,14.9,20.34,22.07,30.77C325.74,177.44,328.24,197.12,319.11,218.32Z"/><path class="cls-1" d="M774.52,193A112.67,112.67,0,1,0,887.19,305.62,112.47,112.47,0,0,0,774.52,193Zm0,169.63a57,57,0,1,1,57-57A56.91,56.91,0,0,1,774.52,362.58Z"/><path class="cls-1" d="M564.85,166.86h6.74a52.81,52.81,0,0,1,52.81,52.81V416.72a1.64,1.64,0,0,1-1.64,1.64H564.85a1.64,1.64,0,0,1-1.64-1.64V168.5A1.64,1.64,0,0,1,564.85,166.86Z"/><path class="cls-1" d="M453.9,166.86h57.94a1.63,1.63,0,0,1,1.63,1.63V416.73a1.63,1.63,0,0,1-1.63,1.63h0a59.57,59.57,0,0,1-59.57-59.57V168.48a1.63,1.63,0,0,1,1.63-1.63Z"/></svg>