<svg id="Lag_1" data-name="Lag 1" xmlns="http://www.w3.org/2000/svg" width="887.02" height="473.83" viewBox="0 0 887.02 473.83"><defs><style>.cls-1{fill:#fff;}.cls-2{fill:#36edad;}</style></defs><path class="cls-1" d="M.15,98c0-3.47,1.27-4.05,4.28-3.82a63.47,63.47,0,0,1,59,62.94c.11,16.32.23,32.74,0,48.94-.35,21.06,6.36,39.22,20.7,54.61C88,264,91.43,268,95.71,270.75a81.41,81.41,0,0,0,23.49,10.06,73.87,73.87,0,0,0,89-50.91c2.08-6.94,2.66-14.11,2.78-21.28,0-16.2,0-32.4.11-48.59,0-14.24,3.24-27.66,11.92-39.46,11.8-15.73,27.65-24.52,47.2-26.26,2.78-.35,3.94.23,3.82,3.36,0,39.22.12,78.32.12,117.54a121,121,0,0,1-5.44,33.21c-8.79,29.85-25.92,54-51,72.42-1.62,1.16-3.47,2.08-5.21,3.13a126.45,126.45,0,0,1-62,21.86c-46,3.82-85-11.45-116-45.93-20-22.21-31.24-48.71-33.56-78.79Z"/><path class="cls-2" d="M182.13,145.15c-5.76,13.16-14.35,25-23.92,35.88a25.59,25.59,0,0,1-12.94,7.83c7.29-20.55,13.48-64.91-1.85-101.23,5.66,28.71-10.74,71.73-21.62,95.54-4.78-1.19,1.4,1.89-2.19-2.14-9.68-10.87-18.27-22.72-24-35.88-9.14-21.2-6.64-40.88,6.19-59.48C109.06,75.23,116.35,65,123.85,54.9l11.2-15.11a4.68,4.68,0,0,1,7.61,0l11.2,15.11c7.61,10.11,14.9,20.33,22.07,30.77C188.76,104.27,191.27,124,182.13,145.15Z"/><path class="cls-1" d="M637.55,119.78A112.67,112.67,0,1,0,750.21,232.44,112.46,112.46,0,0,0,637.55,119.78Zm0,169.63a57,57,0,1,1,57-57A56.91,56.91,0,0,1,637.55,289.41Z"/><path class="cls-1" d="M427.87,93.68h6.74a52.81,52.81,0,0,1,52.81,52.81V343.55a1.64,1.64,0,0,1-1.64,1.64H427.87a1.64,1.64,0,0,1-1.64-1.64V95.33A1.64,1.64,0,0,1,427.87,93.68Z"/><path class="cls-1" d="M316.93,93.68h57.94a1.63,1.63,0,0,1,1.63,1.63V343.56a1.63,1.63,0,0,1-1.63,1.63h0a59.57,59.57,0,0,1-59.57-59.57V95.31a1.63,1.63,0,0,1,1.63-1.63Z"/></svg>