<svg id="Lag_1" data-name="Lag 1" xmlns="http://www.w3.org/2000/svg" width="750" height="310" viewBox="0 0 750 310"><defs><style>.cls-1{fill:#fff;}.cls-2{fill:#36edad;}</style></defs><path class="cls-1" d="M.05,61.1c0-3.47,1.28-4.05,4.28-3.82a63.47,63.47,0,0,1,59,62.94c.12,16.31.23,32.74,0,48.94-.35,21.05,6.36,39.22,20.71,54.61,3.82,3.35,7.29,7.28,11.57,10.06A81.76,81.76,0,0,0,119.1,243.9a73.88,73.88,0,0,0,89-50.91c2.09-6.94,2.67-14.11,2.78-21.29,0-16.19,0-32.39.12-48.59,0-14.23,3.24-27.65,11.91-39.45,11.8-15.74,27.65-24.53,47.21-26.26,2.77-.35,3.93.23,3.82,3.35,0,39.22.11,78.33.11,117.55a120.53,120.53,0,0,1-5.44,33.2c-8.79,29.85-25.91,54-51,72.43-1.62,1.15-3.47,2.08-5.2,3.12a126.5,126.5,0,0,1-62,21.87c-46,3.82-85-11.46-116-45.93C14.28,240.77,3.06,214.28.75,184.2Z"/><path class="cls-2" d="M182,108.24c-5.77,13.15-14.36,25-23.93,35.88A25.65,25.65,0,0,1,145.17,152c7.29-20.55,13.49-64.92-1.84-101.23,5.65,28.7-10.75,71.72-21.62,95.54-4.79-1.2,1.39,1.88-2.2-2.14-9.68-10.87-18.26-22.73-24-35.88-9.13-21.21-6.63-40.89,6.2-59.48C109,38.32,116.25,28.1,123.75,18L135,2.87a4.68,4.68,0,0,1,7.61,0L153.76,18c7.62,10.11,14.9,20.33,22.08,30.77C188.67,67.35,191.17,87,182,108.24Z"/><path class="cls-1" d="M637.45,82.87A112.66,112.66,0,1,0,750.11,195.53,112.46,112.46,0,0,0,637.45,82.87Zm0,169.63a57,57,0,1,1,57-57A56.91,56.91,0,0,1,637.45,252.5Z"/><path class="cls-1" d="M427.77,56.77h6.74a52.81,52.81,0,0,1,52.81,52.81V306.63a1.64,1.64,0,0,1-1.64,1.64H427.77a1.64,1.64,0,0,1-1.64-1.64V58.41A1.64,1.64,0,0,1,427.77,56.77Z"/><path class="cls-1" d="M316.83,56.77h57.94a1.63,1.63,0,0,1,1.63,1.63V306.65a1.63,1.63,0,0,1-1.63,1.63h0a59.57,59.57,0,0,1-59.57-59.57V58.4a1.63,1.63,0,0,1,1.63-1.63Z"/></svg>