<svg xmlns="http://www.w3.org/2000/svg" width="68.256" height="52.649" viewBox="0 0 68.256 52.649">
  <g id="_014-youtube" data-name="014-youtube" transform="translate(0.5 0.5)">
    <g id="Group_119" data-name="Group 119" transform="translate(0 0)">
      <g id="Group_118" data-name="Group 118">
        <path id="Path_119" data-name="Path 119" d="M65.582,69.872c0-.225-.674-5.165-2.807-7.523a9.771,9.771,0,0,0-6.849-3.256h-.449c-9.095-.674-22.68-.786-22.905-.786-.112,0-13.81.112-22.793,1.011H9.442a9.419,9.419,0,0,0-6.849,3.256C.347,64.931-.326,69.984-.326,70.209A112.332,112.332,0,0,0-1,81.661v5.277c0,5.614.674,11.34.674,11.453,0,.225.674,5.165,2.807,7.523a10.011,10.011,0,0,0,6.961,3.256,2.474,2.474,0,0,1,.9.112c5.165.449,21.558.674,22.231.674.112,0,13.81,0,22.905-1.011h.337a9.418,9.418,0,0,0,6.849-3.256c2.246-2.358,2.919-7.41,2.919-7.635A112.331,112.331,0,0,0,66.256,86.6V81.324C66.256,75.71,65.582,69.984,65.582,69.872ZM64.01,86.826a108,108,0,0,1-.674,11.228c-.225,1.235-.9,4.828-2.358,6.4a7.352,7.352,0,0,1-5.389,2.582h-.337c-8.982.674-22.568.674-22.68.674s-16.954-.225-21.895-.786c-.337,0-.674-.112-1.011-.112a7.781,7.781,0,0,1-5.614-2.47c-1.347-1.46-2.133-5.053-2.246-6.288,0-.112-.674-5.726-.674-11.228V81.549a108,108,0,0,1,.674-11.228c.112-1.235.9-4.828,2.246-6.4a7.553,7.553,0,0,1,5.5-2.582h.337c8.982-.674,22.568-.786,22.681-.786s13.7.112,22.68.786H55.7a7.351,7.351,0,0,1,5.389,2.582c1.347,1.572,2.021,5.165,2.246,6.4a88.391,88.391,0,0,1,.674,11.228v5.277Z" transform="translate(1 -58.307)" fill="#fff" stroke="#fff" stroke-width="1"/>
        <path id="Path_120" data-name="Path 120" d="M208.9,172.058,187.564,159.6a1.02,1.02,0,0,0-1.123,0,1.179,1.179,0,0,0-.561,1.011V184.97a1.179,1.179,0,0,0,.561,1.01,1.46,1.46,0,0,0,1.123,0l21.333-11.9a1.19,1.19,0,0,0,0-2.021Zm-20.772,11V162.514l17.965,10.554Z" transform="translate(-161.291 -146.122)" fill="#fff" stroke="#fff" stroke-width="1"/>
      </g>
    </g>
  </g>
</svg>
